<?xml version="1.0" encoding="utf-8"?>
<!-- Generator: Adobe Illustrator 24.0.0, SVG Export Plug-In . SVG Version: 6.00 Build 0)  -->
<svg version="1.1" id="Layer_1" xmlns="http://www.w3.org/2000/svg" xmlns:xlink="http://www.w3.org/1999/xlink" x="0px" y="0px"
	 viewBox="0 0 18 18" style="enable-background:new 0 0 18 18;" xml:space="preserve">
<style type="text/css">
	.st0{fill:#59C6DB;}
</style>
<path id="instagram_9_" class="st0" d="M9.2,18H9c-1.4,0-2.7,0-4-0.1c-1.1-0.1-2.2-0.5-3.1-1.2c-0.8-0.7-1.4-1.6-1.7-2.7
	C0.1,13.1,0,12.2,0,11.2C0,10.6,0,9.8,0,9s0-1.6,0-2.2c0-0.9,0.1-1.9,0.3-2.8c0.2-1,0.8-2,1.7-2.7C2.8,0.6,3.9,0.2,5,0.1
	C6.3,0,7.6,0,9,0s2.7,0,4,0.1c1.1,0.1,2.2,0.5,3.1,1.2c0.8,0.7,1.4,1.6,1.7,2.7C17.9,4.9,18,5.8,18,6.8c0,0.7,0,1.4,0,2.2l0,0
	c0,0.8,0,1.6,0,2.2c0,0.9-0.1,1.9-0.3,2.8c-0.2,1-0.8,2-1.7,2.7c-0.9,0.7-1.9,1.1-3.1,1.2C11.8,18,10.5,18,9.2,18L9.2,18z M9,16.6
	c1.4,0,2.7,0,3.9-0.1c0.8,0,1.6-0.3,2.3-0.8c0.6-0.5,1-1.2,1.2-1.9c0.2-0.8,0.2-1.7,0.2-2.5c0-0.7,0-1.4,0-2.2s0-1.6,0-2.2
	c0-0.8-0.1-1.7-0.2-2.5c-0.2-0.8-0.6-1.4-1.2-1.9c-0.6-0.5-1.4-0.8-2.3-0.8C11.7,1.4,10.4,1.4,9,1.4s-2.7,0-3.9,0.1
	c-0.8,0-1.6,0.3-2.3,0.8c-0.6,0.5-1,1.2-1.2,1.9C1.5,5.1,1.4,6,1.4,6.8c0,0.7,0,1.4,0,2.2s0,1.6,0,2.2c0,0.8,0.1,1.7,0.2,2.5
	c0.2,0.8,0.6,1.4,1.2,1.9c0.6,0.5,1.4,0.8,2.3,0.8C6.3,16.6,7.6,16.6,9,16.6z M9,13.4c-2.4,0-4.4-2-4.4-4.4s2-4.4,4.4-4.4
	s4.4,2,4.4,4.4c0,0,0,0,0,0C13.4,11.4,11.4,13.4,9,13.4L9,13.4z M9,6C7.3,6,6,7.3,6,9c0,1.7,1.3,3,3,3s3-1.3,3-3c0,0,0,0,0,0
	C12,7.4,10.6,6,9,6L9,6z M13.9,3.2c-0.6,0-1.1,0.5-1.1,1.1s0.5,1.1,1.1,1.1c0.6,0,1.1-0.5,1.1-1.1S14.4,3.2,13.9,3.2
	C13.9,3.2,13.9,3.2,13.9,3.2z"/>
</svg>
