<svg id="painting" xmlns="http://www.w3.org/2000/svg" width="48" height="48" viewBox="0 0 48 48">
  <path id="Path_33" data-name="Path 33" d="M103.108,21.616h21.763a3.814,3.814,0,0,0,3.809-3.809v-14A3.814,3.814,0,0,0,124.871,0H103.108A3.814,3.814,0,0,0,99.3,3.809v14A3.814,3.814,0,0,0,103.108,21.616Zm-2.4-17.806a2.406,2.406,0,0,1,2.4-2.4h21.763a2.406,2.406,0,0,1,2.4,2.4v14a2.406,2.406,0,0,1-2.4,2.4H103.108a2.406,2.406,0,0,1-2.4-2.4Z" transform="translate(-89.99 0)" fill="#fff"/>
  <path id="Path_34" data-name="Path 34" d="M133.136,32.857a.7.7,0,0,0,.7-.7v-.388a.7.7,0,0,0-1.406,0v.388a.7.7,0,0,0,.7.7Z" transform="translate(-120.017 -28.15)" fill="#fff"/>
  <path id="Path_35" data-name="Path 35" d="M133.621,45.479a2.511,2.511,0,0,1,1.966,1.89,1.484,1.484,0,0,0,1.446,1.168H151a1.481,1.481,0,0,0,1.449-1.184,2.546,2.546,0,0,1,1.974-1.972,1.479,1.479,0,0,0,1.182-1.449V37.739a1.481,1.481,0,0,0-1.184-1.449,2.546,2.546,0,0,1-1.972-1.973A1.48,1.48,0,0,0,151,33.134H137.032a1.484,1.484,0,0,0-1.445,1.169,2.511,2.511,0,0,1-1.965,1.889,1.484,1.484,0,0,0-1.19,1.45v6.387A1.482,1.482,0,0,0,133.621,45.479Zm.218-7.837a.073.073,0,0,1,.06-.071,3.934,3.934,0,0,0,3.064-2.976.07.07,0,0,1,.07-.055H151a.069.069,0,0,1,.069.055,3.968,3.968,0,0,0,3.073,3.073.071.071,0,0,1,.055.07v6.194a.07.07,0,0,1-.053.07,3.968,3.968,0,0,0-3.076,3.073.071.071,0,0,1-.07.055H137.033a.071.071,0,0,1-.07-.055A3.934,3.934,0,0,0,133.9,44.1a.072.072,0,0,1-.058-.071Z" transform="translate(-120.017 -30.028)" fill="#fff"/>
  <path id="Path_36" data-name="Path 36" d="M365.27,32.857a.7.7,0,0,0,.7-.7v-.388a.7.7,0,0,0-1.406,0v.388a.7.7,0,0,0,.7.7Z" transform="translate(-330.389 -28.15)" fill="#fff"/>
  <path id="Path_37" data-name="Path 37" d="M133.136,182.156a.7.7,0,0,0,.7-.7v-.388a.7.7,0,0,0-1.406,0v.388A.7.7,0,0,0,133.136,182.156Z" transform="translate(-120.017 -163.452)" fill="#fff"/>
  <path id="Path_38" data-name="Path 38" d="M365.27,180.362a.7.7,0,0,0-.7.7v.388a.7.7,0,0,0,1.406,0v-.388A.7.7,0,0,0,365.27,180.362Z" transform="translate(-330.389 -163.453)" fill="#fff"/>
  <path id="Path_39" data-name="Path 39" d="M182.937,75.439H187.6a.7.7,0,0,0,.7-.7v-2.4h1.627a.7.7,0,0,0,.629-1.018l-2.33-4.659a.7.7,0,0,0-1.258,0l-1.359,2.718h-2.672a.7.7,0,0,0-.7.7v4.659a.7.7,0,0,0,.7.7Zm4.659-6.9,1.192,2.384H186.4Zm-3.956,2.237h1.265l-.268.536a.7.7,0,0,0,.629,1.018h1.627v1.7H183.64V70.779Z" transform="translate(-165.15 -60.054)" fill="#fff"/>
  <path id="Path_40" data-name="Path 40" d="M284.665,88.9a3.033,3.033,0,1,0-3.033-3.033A3.036,3.036,0,0,0,284.665,88.9Zm0-4.659a1.627,1.627,0,1,1-1.627,1.627A1.628,1.628,0,0,1,284.665,84.239Z" transform="translate(-255.229 -75.067)" fill="#fff"/>
  <path id="Path_41" data-name="Path 41" d="M216.82,248.5a1.455,1.455,0,0,0-1.453,1.453v1.606a1.455,1.455,0,0,0,1.453,1.453h4.712a1.455,1.455,0,0,0,1.453-1.453v-1.606a1.455,1.455,0,0,0-1.453-1.453Zm4.759,1.453v1.606a.047.047,0,0,1-.047.047H216.82a.047.047,0,0,1-.047-.047v-1.606a.047.047,0,0,1,.047-.047h4.712A.047.047,0,0,1,221.579,249.953Z" transform="translate(-195.176 -225.203)" fill="#fff"/>
  <path id="Path_42" data-name="Path 42" d="M46.547,238.662H44.89c0-.024,0-.049,0-.073v-.777a2.26,2.26,0,0,0-1.553-2.143v-12.8a2.26,2.26,0,0,0,1.553-2.143v-.777a1.481,1.481,0,0,0-1.48-1.48h-.24a2.256,2.256,0,1,0-4.179,0h-.24a1.481,1.481,0,0,0-1.48,1.48v.777a2.26,2.26,0,0,0,1.519,2.132,21.044,21.044,0,0,1-5.975,4.157.7.7,0,1,0,.591,1.276,22.415,22.415,0,0,0,5.417-3.539v2.223a24.16,24.16,0,0,1-29.656,0v-2.221A22.436,22.436,0,0,0,30.5,229.4a.7.7,0,1,0-.408-1.346,21.025,21.025,0,0,1-20.884-5.2,2.26,2.26,0,0,0,1.519-2.132v-.777a1.481,1.481,0,0,0-1.48-1.48h-.24a2.256,2.256,0,1,0-4.179,0h-.24a1.481,1.481,0,0,0-1.48,1.48v.777a2.26,2.26,0,0,0,1.553,2.143v12.8a2.26,2.26,0,0,0-1.553,2.143v.777c0,.025,0,.049,0,.073H1.453A1.455,1.455,0,0,0,0,240.115v1.606a1.455,1.455,0,0,0,1.453,1.453H7.062a.7.7,0,1,0,0-1.406H1.453a.047.047,0,0,1-.047-.047v-1.606a.047.047,0,0,1,.047-.047H46.547a.047.047,0,0,1,.047.047v1.606a.047.047,0,0,1-.047.047H9.875a.7.7,0,0,0,0,1.406H46.547A1.455,1.455,0,0,0,48,241.721v-1.606a1.455,1.455,0,0,0-1.453-1.453Zm-6.312-15.429a.708.708,0,0,0,0-.249h1.7v1.7h-1.7Zm0,4.116a.673.673,0,0,0,0-.067V226.09h1.7v9.466h-1.7Zm0-9.728a.85.85,0,1,1,.85.85A.851.851,0,0,1,40.234,217.621Zm-1.553,2.33a.074.074,0,0,1,.073-.073h4.659a.074.074,0,0,1,.074.073v.777a.851.851,0,0,1-.85.85H39.531a.851.851,0,0,1-.85-.85ZM24,233.468a25.217,25.217,0,0,0,14.828-4.736v6.937a2.26,2.26,0,0,0-1.553,2.143v.777c0,.025,0,.049,0,.073H10.721c0-.024,0-.049,0-.073v-.777a2.26,2.26,0,0,0-1.553-2.143v-6.937A25.218,25.218,0,0,0,24,233.468ZM7.766,223.081c0,.023,0,.046,0,.07v1.533h-1.7v-1.7h1.7Zm-1.7,3.009h1.7v9.466h-1.7Zm0-8.469a.85.85,0,1,1,.85.85A.851.851,0,0,1,6.066,217.621Zm-1.553,2.33a.074.074,0,0,1,.074-.073H9.245a.074.074,0,0,1,.073.073v.777a.851.851,0,0,1-.85.85H5.362a.851.851,0,0,1-.85-.85Zm.074,18.711a.074.074,0,0,1-.074-.073v-.777a.851.851,0,0,1,.85-.85H8.469a.851.851,0,0,1,.85.85v.777a.074.074,0,0,1-.073.073Zm34.169,0a.074.074,0,0,1-.073-.073v-.777a.851.851,0,0,1,.85-.85h3.106a.851.851,0,0,1,.85.85v.777a.074.074,0,0,1-.073.073Z" transform="translate(0 -195.175)" fill="#fff"/>
</svg>
