<svg id="spotlight" xmlns="http://www.w3.org/2000/svg" width="48" height="48" viewBox="0 0 48 48">
  <path id="Path_17" data-name="Path 17" d="M180.55,119.739l-1.424-.723-.722-1.424a.828.828,0,0,0-1.56,0l-.723,1.424-1.426.724a.828.828,0,0,0,0,1.558l1.424.723.722,1.424a.859.859,0,0,0,.778.55h0a.862.862,0,0,0,.78-.549l.723-1.424,1.424-.722a.828.828,0,0,0,0-1.56Zm-2.265,1.132a.7.7,0,0,0-.309.309l-.352.694-.352-.694a.7.7,0,0,0-.309-.309l-.694-.352.694-.352a.7.7,0,0,0,.309-.309l.352-.694.352.694a.7.7,0,0,0,.309.309l.694.352Z" transform="translate(-157.821 -106.069)" fill="#fff"/>
  <path id="Path_18" data-name="Path 18" d="M46.06,6.606V5.169h.766A1.174,1.174,0,0,0,48,4V1.171A1.174,1.174,0,0,0,46.826,0H1.171A1.172,1.172,0,0,0,0,1.171V4A1.172,1.172,0,0,0,1.171,5.169h.766V6.606A1.994,1.994,0,0,0,3.226,8.467v5.174l-1.537.887a1.266,1.266,0,0,0-.461,1.725l1.886,3.268,1.226,5.99c.1.484.193.942.653,1.149a.883.883,0,0,0,.368.08,2.158,2.158,0,0,0,1.011-.383l.61-.352L8.23,31.47A.7.7,0,1,0,9.6,31.158l-.957-4.2a4.317,4.317,0,0,0,1.911.449A4.276,4.276,0,0,0,14.812,23.4l8.154,7.568L11.9,41.233,10.334,34.36a.7.7,0,0,0-1.371.313l1.643,7.2H1.269A1.292,1.292,0,0,0,0,43.186v3.5A1.292,1.292,0,0,0,1.269,48H46.728A1.294,1.294,0,0,0,48,46.688v-3.5a1.294,1.294,0,0,0-1.272-1.312H37.391l1.646-7.206a.7.7,0,0,0-1.371-.313L36.1,41.233,25.033,30.965,33.187,23.4a4.273,4.273,0,0,0,6.167,3.564l-.987,4.329a.7.7,0,1,0,1.371.313l1.276-5.6.611.352a2.156,2.156,0,0,0,1.011.383.882.882,0,0,0,.368-.08c.46-.207.553-.664.653-1.149l1.226-5.99,1.886-3.268a1.264,1.264,0,0,0-.462-1.726l-1.533-.886V8.467A1.994,1.994,0,0,0,46.06,6.606ZM4.038,18.309l-1.52-2.635L8.1,12.45l1.521,2.634ZM3.93,7.192a.587.587,0,0,1-.586-.586V5.169H7.561V6.606a.594.594,0,0,1-.586.586ZM6.272,8.6v3.284l-1.639.947V8.6Zm5.71,17.02a2.869,2.869,0,0,1-3.49-.484l4.816-2.78a2.873,2.873,0,0,1-1.326,3.263Zm-4.893-1.3-1.392.8-1.126-5.5L10.494,16.2l4.2,3.725L7.089,24.321ZM46.594,46.594H1.406V43.28H46.594Zm-11.875-4.72H13.279L24,31.925ZM38.192,25.9a2.866,2.866,0,0,1-3.5-3.549l4.814,2.779A2.847,2.847,0,0,1,38.192,25.9Zm4.109-.781-9-5.195L37.5,16.2l5.923,3.421Zm3.179-9.45-1.52,2.635-5.583-3.225L39.9,12.449ZM41.022,7.192a.585.585,0,0,1-.583-.586V5.169h4.215V6.606a.585.585,0,0,1-.583.586ZM43.367,8.6V12.83l-1.642-.948V8.6ZM25.641,3.763a.7.7,0,1,0,0,1.406H39.033V6.606a1.993,1.993,0,0,0,1.286,1.861v2.618a1.266,1.266,0,0,0-1.569.541l-1.886,3.266-4.577,4.058c-.369.328-.717.639-.666,1.14.053.523.51.787.952,1.044l.609.351L24,30.006l-9.182-8.523.608-.351c.442-.256.9-.522.952-1.045.05-.5-.3-.812-.669-1.14l-4.576-4.057L9.249,11.627a1.263,1.263,0,0,0-1.57-.542V8.467A1.994,1.994,0,0,0,8.967,6.606V5.169H22.359a.7.7,0,0,0,0-1.406H1.406V1.406H46.594V3.763Z" fill="#fff"/>
  <path id="Path_19" data-name="Path 19" d="M274.868,79.283l1.424.723.722,1.424a.828.828,0,0,0,1.56,0l.722-1.424,1.427-.722a.828.828,0,0,0,0-1.559L279.3,77l-.722-1.424a.828.828,0,0,0-1.56,0L276.292,77l-1.424.72a.828.828,0,0,0,0,1.56Zm2.265-1.129a.7.7,0,0,0,.31-.309l.352-.694.352.694a.7.7,0,0,0,.309.309l.693.352-.692.35a.7.7,0,0,0-.31.309l-.352.694-.352-.694a.7.7,0,0,0-.309-.309l-.693-.352Z" transform="translate(-248.6 -67.995)" fill="#fff"/>
</svg>
