<svg xmlns="http://www.w3.org/2000/svg" width="24" height="24" viewBox="0 0 24 24">
  <path id="website" d="M12,0A11.9,11.9,0,0,1,24,12,11.9,11.9,0,0,1,12,24,11.9,11.9,0,0,1,0,12,11.9,11.9,0,0,1,12,0ZM5.4,11.471a18.648,18.648,0,0,1,1.2-5.33A15.287,15.287,0,0,1,3.846,4.659a10.723,10.723,0,0,0-2.717,6.812Zm-4.27,1.059a10.726,10.726,0,0,0,2.717,6.812A15.287,15.287,0,0,1,6.6,17.859a16.761,16.761,0,0,1-1.2-5.33ZM8.964,1.517a10.261,10.261,0,0,0-4.378,2.4A12.351,12.351,0,0,0,6.952,5.223,16.858,16.858,0,0,1,8.964,1.517ZM4.587,20.083a9.834,9.834,0,0,0,4.378,2.364,14.835,14.835,0,0,1-1.976-3.706A11.807,11.807,0,0,0,4.587,20.083Zm6.883-12.6a12.321,12.321,0,0,1-3.917-.988,15.788,15.788,0,0,0-1.1,4.976H11.47ZM6.458,12.529a16.465,16.465,0,0,0,1.1,4.977,12.252,12.252,0,0,1,3.917-.988V12.529ZM11.47,1.094a6.129,6.129,0,0,0-1.094.1A21.384,21.384,0,0,0,7.871,5.611a13.179,13.179,0,0,0,3.6.777Zm0,16.517a13.417,13.417,0,0,0-3.564.742,19.366,19.366,0,0,0,2.47,4.446,6.009,6.009,0,0,0,1.094.106ZM12.529,6.389a13.168,13.168,0,0,0,3.6-.777A21.319,21.319,0,0,0,13.622,1.2a6.117,6.117,0,0,0-1.094-.1Zm0,5.082h5.012a15.75,15.75,0,0,0-1.1-4.976,12.321,12.321,0,0,1-3.917.988Zm0,1.059v3.989a12.252,12.252,0,0,1,3.917.988,16.423,16.423,0,0,0,1.1-4.977Zm0,10.376a6,6,0,0,0,1.094-.106,19.423,19.423,0,0,0,2.472-4.446,13.415,13.415,0,0,0-3.566-.742ZM19.412,3.917a10.256,10.256,0,0,0-4.376-2.4,16.913,16.913,0,0,1,2.011,3.706A12.351,12.351,0,0,0,19.412,3.917Zm-4.376,18.53a9.829,9.829,0,0,0,4.376-2.364,11.832,11.832,0,0,0-2.4-1.342A14.927,14.927,0,0,1,15.036,22.447ZM22.87,11.471a10.716,10.716,0,0,0-2.717-6.812A15.287,15.287,0,0,1,17.4,6.141a18.6,18.6,0,0,1,1.2,5.33ZM18.6,12.529a16.761,16.761,0,0,1-1.2,5.33,15.287,15.287,0,0,1,2.753,1.482,10.719,10.719,0,0,0,2.717-6.812Z" fill="#59c6db" fill-rule="evenodd"/>
</svg>
