<svg xmlns="http://www.w3.org/2000/svg" width="42.881" height="48" viewBox="0 0 42.881 48">
  <g id="structure" transform="translate(-27.302)">
    <path id="Path_22" data-name="Path 22" d="M142.858,1.406H167.77a1.562,1.562,0,0,1,1.561,1.561v8.628a1.562,1.562,0,0,1-1.561,1.561h-2.49a.7.7,0,0,0,0,1.406h2.49a2.97,2.97,0,0,0,2.967-2.967V2.967A2.97,2.97,0,0,0,167.77,0H142.858a.7.7,0,0,0,0,1.406Z" transform="translate(-104.086)" fill="#00c1e3"/>
    <path id="Path_23" data-name="Path 23" d="M69.194,14.562H93.659a.7.7,0,0,0,0-1.406H69.194a1.562,1.562,0,0,1-1.561-1.561V2.967a1.562,1.562,0,0,1,1.561-1.561h2.043a.7.7,0,0,0,0-1.406H69.194a2.97,2.97,0,0,0-2.967,2.967v8.628A2.97,2.97,0,0,0,69.194,14.562Z" transform="translate(-35.276)" fill="#00c1e3"/>
    <path id="Path_24" data-name="Path 24" d="M32.554,399.95a5.252,5.252,0,1,0,5.252,5.252A5.258,5.258,0,0,0,32.554,399.95Zm0,9.1A3.846,3.846,0,1,1,36.4,405.2,3.85,3.85,0,0,1,32.554,409.048Z" transform="translate(0 -362.455)" fill="#00c1e3"/>
    <path id="Path_25" data-name="Path 25" d="M59.733,429.74a.7.7,0,0,0-.7.7,1.235,1.235,0,1,1-1.235-1.235.7.7,0,0,0,0-1.406,2.641,2.641,0,1,0,2.641,2.641A.7.7,0,0,0,59.733,429.74Z" transform="translate(-25.241 -387.696)" fill="#00c1e3"/>
    <path id="Path_26" data-name="Path 26" d="M40.136,192.793H46.96a.7.7,0,0,0,0-1.406H44.251v-4.461a1.841,1.841,0,0,1,1.839-1.839H59.033v6.3H56.324a.7.7,0,0,0,0,1.406h6.824a.7.7,0,0,0,0-1.406H60.439v-6.3H73.383a1.841,1.841,0,0,1,1.839,1.839v4.461H72.512a.7.7,0,1,0,0,1.406h6.824a.7.7,0,0,0,0-1.406H76.627v-4.461a3.248,3.248,0,0,0-3.245-3.245H60.439v-5.153a2.732,2.732,0,1,0-1.406,0v5.153H46.09a3.248,3.248,0,0,0-3.245,3.245v4.461H40.136a.7.7,0,0,0,0,1.406Zm18.274-16.9a1.326,1.326,0,1,1,1.326,1.326A1.327,1.327,0,0,1,58.411,175.888Z" transform="translate(-10.994 -156.923)" fill="#00c1e3"/>
    <path id="Path_27" data-name="Path 27" d="M205.227,399.95a5.252,5.252,0,1,0,5.252,5.252A5.258,5.258,0,0,0,205.227,399.95Zm0,9.1a3.846,3.846,0,1,1,3.846-3.846A3.85,3.85,0,0,1,205.227,409.048Z" transform="translate(-156.485 -362.455)" fill="#00c1e3"/>
    <path id="Path_28" data-name="Path 28" d="M377.9,399.95a5.252,5.252,0,1,0,5.252,5.252A5.258,5.258,0,0,0,377.9,399.95Zm0,9.1a3.846,3.846,0,1,1,3.846-3.846A3.85,3.85,0,0,1,377.9,409.048Z" transform="translate(-312.97 -362.455)" fill="#00c1e3"/>
    <path id="Path_29" data-name="Path 29" d="M135.134,46.99H156.64a.7.7,0,0,0,0-1.406H135.134a.7.7,0,0,0,0,1.406Z" transform="translate(-97.086 -41.311)" fill="#00c1e3"/>
    <path id="Path_30" data-name="Path 30" d="M135.134,96.145H156.64a.7.7,0,0,0,0-1.406H135.134a.7.7,0,0,0,0,1.406Z" transform="translate(-97.086 -85.857)" fill="#00c1e3"/>
    <path id="Path_31" data-name="Path 31" d="M232.406,429.74a.7.7,0,0,0-.7.7,1.235,1.235,0,1,1-1.235-1.235.7.7,0,0,0,0-1.406,2.641,2.641,0,1,0,2.641,2.641A.7.7,0,0,0,232.406,429.74Z" transform="translate(-181.726 -387.696)" fill="#00c1e3"/>
    <path id="Path_32" data-name="Path 32" d="M405.08,429.74a.7.7,0,0,0-.7.7,1.235,1.235,0,1,1-1.235-1.235.7.7,0,0,0,0-1.406,2.641,2.641,0,1,0,2.641,2.641A.7.7,0,0,0,405.08,429.74Z" transform="translate(-338.212 -387.696)" fill="#00c1e3"/>
  </g>
</svg>
