<svg xmlns="http://www.w3.org/2000/svg" width="18" height="14.625" viewBox="0 0 18 14.625">
  <path id="twitter_8_" data-name="twitter (8)" d="M16.164,6.374c0-.163-.006-.321-.013-.477A7.366,7.366,0,0,0,18,3.982h0a7.707,7.707,0,0,1-2.126.583A3.671,3.671,0,0,0,17.5,2.524a7.384,7.384,0,0,1-2.34.893A3.69,3.69,0,0,0,8.774,5.941a3.8,3.8,0,0,0,.086.842,10.448,10.448,0,0,1-7.607-3.86A3.69,3.69,0,0,0,2.387,7.854,3.648,3.648,0,0,1,.72,7.4v.04a3.707,3.707,0,0,0,2.957,3.626,3.9,3.9,0,0,1-1.666.059A3.727,3.727,0,0,0,5.459,13.7,7.418,7.418,0,0,1,.883,15.269,6.979,6.979,0,0,1,0,15.219a10.392,10.392,0,0,0,5.661,1.656,10.431,10.431,0,0,0,10.5-10.5Z" transform="translate(0 -2.25)" fill="#fff"/>
</svg>
